<?xml version="1.0" encoding="utf-8"?>
<!-- Generator: Adobe Illustrator 22.0.0, SVG Export Plug-In . SVG Version: 6.00 Build 0)  -->
<svg version="1.1" id="Calque_1" xmlns="http://www.w3.org/2000/svg" xmlns:xlink="http://www.w3.org/1999/xlink" x="0px" y="0px"
	 viewBox="0 0 355.8 71.6" style="enable-background:new 0 0 355.8 71.6;" xml:space="preserve">
<style type="text/css">
	.st0{fill:#FFFFFF;}
	.st1{fill:none;}
</style>
<path class="st0" d="M20,40.4c2.8,0,5.2-1.4,7.5-4.2l4.9,5.5c-3.8,4-8,6-12.5,6s-8.2-1.5-11.3-4.2C5.5,40.7,4,37,4,32.5
	c0-4.6,1.5-8.3,4.7-11.2c3.1-2.8,6.8-4.3,11.1-4.3c2.2,0,4.3,0.5,6.5,1.3c2.2,0.9,4.2,2.2,5.8,3.9l-4.3,5.6c-0.9-1.2-2.2-2-3.5-2.7
	c-1.4-0.6-2.8-0.9-4.2-0.9c-2.2,0-4.1,0.7-5.6,2.2c-1.5,1.4-2.4,3.4-2.4,5.9s0.8,4.5,2.4,5.9S17.9,40.4,20,40.4z"/>
<path class="st0" d="M67.2,32.4c0,4.3-1.5,7.9-4.5,10.9c-3,2.9-6.8,4.5-11.3,4.5c-4.5,0-8.2-1.5-11.2-4.5c-3-2.9-4.5-6.6-4.5-10.9
	s1.5-8,4.5-10.9c3-3,6.8-4.5,11.2-4.5c4.5,0,8.3,1.5,11.3,4.5S67.2,28.1,67.2,32.4z M44.1,32.4c0,2.5,0.7,4.4,2.1,5.9
	s3.2,2.3,5.3,2.3s3.9-0.8,5.3-2.3c1.4-1.5,2.1-3.5,2.1-5.9c0-2.4-0.7-4.5-2.1-6c-1.4-1.5-3.2-2.3-5.3-2.3c-2.2,0-3.9,0.8-5.3,2.3
	C44.8,28,44.1,29.9,44.1,32.4z"/>
<path class="st0" d="M81.7,30.7v16.6h-8.3V17.5h8.3v3.4c2.5-2.5,5.3-3.8,8.5-3.8s5.8,1.1,7.9,3.3s3.2,5.2,3.2,8.8v18.1h-8.3V30.5
	c0-4.6-1.7-6.8-5.1-6.8c-1.7,0-3.1,0.6-4.4,1.8C82.3,26.6,81.7,28.4,81.7,30.7z"/>
<path class="st0" d="M116.3,47.3l-11.8-29.8h8.6l7.4,18.8l7.4-18.8h8.6l-11.8,29.8H116.3z"/>
<path class="st0" d="M149,59c-2.9,0-5.7-1.2-8.2-3.5l3.8-6.2c1.4,1.4,2.8,2.1,4.3,2.1c0.8,0,1.5-0.4,2-1.2s0.8-1.5,0.8-2.4
	s-3.8-11-11.5-30.4h8.8l7.2,18.5l7.2-18.5h8.8l-13.8,35.1c-0.8,2-2.1,3.6-3.8,4.8C153,58.5,151.1,59,149,59z"/>
<g>
	<path class="st0" d="M201.9,14.5v14.2h4.9v2.4h-7.4V14.5H201.9z"/>
	<path class="st0" d="M216.4,20.6h2.4v10.5h-2.4V30c-1,0.9-2.1,1.4-3.2,1.4c-1.4,0-2.6-0.5-3.6-1.6c-0.9-1.1-1.4-2.4-1.4-4
		c0-1.6,0.5-2.9,1.4-3.9c0.9-1,2.1-1.6,3.5-1.6c1.2,0,2.3,0.5,3.3,1.5V20.6z M210.7,25.8c0,1,0.3,1.8,0.8,2.4c0.6,0.6,1.2,1,2.1,1
		c0.9,0,1.6-0.3,2.2-0.9c0.6-0.6,0.8-1.4,0.8-2.4c0-1-0.3-1.8-0.8-2.4c-0.6-0.6-1.3-0.9-2.1-0.9c-0.8,0-1.5,0.3-2.1,0.9
		C210.9,24.1,210.7,24.9,210.7,25.8z"/>
	<path class="st0" d="M221.9,20.6h2.4v1c0.8-0.8,1.8-1.3,2.9-1.3c1.2,0,2.2,0.4,2.8,1.1c0.6,0.7,0.9,1.7,0.9,3.2v6.4h-2.4v-5.8
		c0-1-0.1-1.7-0.4-2.1c-0.3-0.4-0.8-0.6-1.5-0.6c-0.8,0-1.4,0.3-1.7,0.8c-0.3,0.5-0.5,1.4-0.5,2.7v5h-2.4V20.6z"/>
	<path class="st0" d="M241.6,12.9h2.4v18.1h-2.4V30c-1,0.9-2,1.4-3.2,1.4c-1.4,0-2.6-0.5-3.6-1.6c-0.9-1.1-1.4-2.4-1.4-4
		c0-1.6,0.5-2.9,1.4-3.9c0.9-1.1,2.1-1.6,3.5-1.6c1.2,0,2.3,0.5,3.3,1.5V12.9z M235.9,25.8c0,1,0.3,1.8,0.8,2.4c0.6,0.6,1.2,1,2.1,1
		c0.9,0,1.6-0.3,2.2-0.9c0.6-0.6,0.8-1.4,0.8-2.4c0-1-0.3-1.8-0.8-2.4c-0.6-0.6-1.3-0.9-2.1-0.9c-0.8,0-1.5,0.3-2.1,0.9
		C236.2,24.1,235.9,24.9,235.9,25.8z"/>
	<path class="st0" d="M246.8,16.3c0-0.4,0.2-0.8,0.5-1.1c0.3-0.3,0.7-0.5,1.1-0.5c0.4,0,0.8,0.2,1.1,0.5c0.3,0.3,0.5,0.7,0.5,1.1
		c0,0.4-0.2,0.8-0.5,1.1c-0.3,0.3-0.7,0.5-1.1,0.5s-0.8-0.2-1.1-0.5C246.9,17.1,246.8,16.7,246.8,16.3z M249.5,20.6v10.5h-2.4V20.6
		H249.5z"/>
	<path class="st0" d="M252.6,20.6h2.4v1c0.8-0.8,1.8-1.3,2.9-1.3c1.2,0,2.2,0.4,2.8,1.1c0.6,0.7,0.9,1.7,0.9,3.2v6.4h-2.4v-5.8
		c0-1-0.1-1.7-0.4-2.1c-0.3-0.4-0.8-0.6-1.5-0.6c-0.8,0-1.4,0.3-1.7,0.8c-0.3,0.5-0.5,1.4-0.5,2.7v5h-2.4V20.6z"/>
	<path class="st0" d="M274.8,30.8c0,0.5,0,0.9,0,1.3c0,0.4-0.1,0.7-0.1,1c-0.2,0.8-0.5,1.5-1,2c-0.9,1.1-2.2,1.6-3.9,1.6
		c-1.4,0-2.5-0.4-3.4-1.1c-0.9-0.8-1.5-1.8-1.6-3.2h2.4c0.1,0.5,0.2,0.9,0.5,1.2c0.5,0.7,1.2,1,2.2,1c1.8,0,2.7-1.1,2.7-3.3v-1.5
		c-1,1-2.1,1.5-3.3,1.5c-1.4,0-2.6-0.5-3.5-1.5c-0.9-1-1.4-2.4-1.4-3.9c0-1.5,0.4-2.8,1.3-3.9c0.9-1.1,2.1-1.7,3.6-1.7
		c1.3,0,2.4,0.5,3.3,1.5v-1.2h2.4V30.8z M272.5,25.9c0-1-0.3-1.8-0.8-2.4c-0.6-0.6-1.3-0.9-2.1-0.9c-0.9,0-1.6,0.3-2.2,1
		c-0.5,0.6-0.7,1.4-0.7,2.4c0,1,0.2,1.7,0.7,2.3c0.5,0.7,1.2,1,2.2,1s1.7-0.3,2.2-1C272.2,27.6,272.5,26.8,272.5,25.9z"/>
	<path class="st0" d="M287.6,24.3v6.7h-2.5V14.5h2.8c1.4,0,2.4,0.1,3.1,0.3c0.7,0.2,1.3,0.6,1.9,1.1c1,0.9,1.4,2.1,1.4,3.5
		c0,1.5-0.5,2.7-1.5,3.6c-1,0.9-2.4,1.3-4.1,1.3H287.6z M287.6,22h0.9c2.3,0,3.4-0.9,3.4-2.7c0-1.7-1.2-2.6-3.6-2.6h-0.8V22z"/>
	<path class="st0" d="M303.6,20.6h2.4v10.5h-2.4V30c-1,0.9-2.1,1.4-3.2,1.4c-1.4,0-2.6-0.5-3.6-1.6c-0.9-1.1-1.4-2.4-1.4-4
		c0-1.6,0.5-2.9,1.4-3.9c0.9-1,2.1-1.6,3.5-1.6c1.2,0,2.3,0.5,3.3,1.5V20.6z M297.9,25.8c0,1,0.3,1.8,0.8,2.4c0.6,0.6,1.2,1,2.1,1
		c0.9,0,1.6-0.3,2.2-0.9c0.6-0.6,0.8-1.4,0.8-2.4c0-1-0.3-1.8-0.8-2.4c-0.6-0.6-1.3-0.9-2.1-0.9c-0.8,0-1.5,0.3-2.1,0.9
		C298.2,24.1,297.9,24.9,297.9,25.8z"/>
	<path class="st0" d="M319.2,30.8c0,0.5,0,0.9,0,1.3c0,0.4-0.1,0.7-0.1,1c-0.2,0.8-0.5,1.5-1,2c-0.9,1.1-2.2,1.6-3.9,1.6
		c-1.4,0-2.5-0.4-3.4-1.1c-0.9-0.8-1.5-1.8-1.6-3.2h2.4c0.1,0.5,0.2,0.9,0.5,1.2c0.5,0.7,1.2,1,2.2,1c1.8,0,2.7-1.1,2.7-3.3v-1.5
		c-1,1-2.1,1.5-3.3,1.5c-1.4,0-2.6-0.5-3.5-1.5c-0.9-1-1.4-2.4-1.4-3.9c0-1.5,0.4-2.8,1.3-3.9c0.9-1.1,2.1-1.7,3.6-1.7
		c1.3,0,2.4,0.5,3.3,1.5v-1.2h2.4V30.8z M316.9,25.9c0-1-0.3-1.8-0.8-2.4c-0.6-0.6-1.3-0.9-2.1-0.9c-0.9,0-1.6,0.3-2.2,1
		c-0.5,0.6-0.7,1.4-0.7,2.4c0,1,0.2,1.7,0.7,2.3c0.5,0.7,1.2,1,2.2,1s1.7-0.3,2.2-1C316.7,27.6,316.9,26.8,316.9,25.9z"/>
	<path class="st0" d="M331.8,26.4h-7.5c0.1,0.9,0.3,1.5,0.8,2.1c0.5,0.5,1.1,0.8,1.9,0.8c0.6,0,1.1-0.1,1.5-0.4
		c0.4-0.3,0.8-0.8,1.3-1.6l2,1.1c-0.3,0.5-0.6,1-1,1.4c-0.4,0.4-0.7,0.7-1.1,0.9s-0.8,0.4-1.3,0.5c-0.5,0.1-1,0.2-1.5,0.2
		c-1.6,0-2.8-0.5-3.8-1.5c-0.9-1-1.4-2.3-1.4-4c0-1.7,0.5-3,1.4-4c0.9-1,2.1-1.5,3.7-1.5c1.5,0,2.8,0.5,3.7,1.5c0.9,1,1.3,2.3,1.3,4
		L331.8,26.4z M329.3,24.4c-0.3-1.3-1.1-1.9-2.4-1.9c-0.3,0-0.6,0-0.8,0.1c-0.3,0.1-0.5,0.2-0.7,0.4c-0.2,0.2-0.4,0.4-0.5,0.6
		s-0.3,0.5-0.3,0.8H329.3z"/>
	<path class="st0" d="M340.5,22.4l-2,1.1c-0.3-0.6-0.7-1-1.2-1c-0.2,0-0.4,0.1-0.6,0.2c-0.2,0.1-0.2,0.3-0.2,0.6
		c0,0.4,0.5,0.8,1.4,1.2c1.3,0.6,2.1,1.1,2.6,1.5c0.4,0.5,0.7,1.1,0.7,1.9c0,1-0.4,1.9-1.1,2.5c-0.7,0.6-1.6,1-2.6,1
		c-1.8,0-3-0.9-3.7-2.6l2.1-1c0.3,0.5,0.5,0.8,0.7,1c0.3,0.3,0.6,0.4,1.1,0.4c0.8,0,1.2-0.4,1.2-1.1c0-0.4-0.3-0.8-0.9-1.2
		c-0.2-0.1-0.5-0.2-0.7-0.4c-0.2-0.1-0.5-0.2-0.7-0.4c-0.7-0.3-1.2-0.7-1.5-1c-0.4-0.4-0.5-1-0.5-1.7c0-0.9,0.3-1.7,0.9-2.3
		c0.6-0.6,1.4-0.9,2.3-0.9C338.9,20.3,339.9,21,340.5,22.4z"/>
	<path class="st0" d="M208.8,43.4l-2,1.2c-0.4-0.7-0.7-1.1-1.1-1.3c-0.4-0.2-0.8-0.3-1.4-0.3c-0.7,0-1.3,0.2-1.7,0.6
		c-0.5,0.4-0.7,0.9-0.7,1.5c0,0.8,0.6,1.5,1.8,2l1.7,0.7c1.3,0.5,2.3,1.2,3,2s0.9,1.7,0.9,2.9c0,1.5-0.5,2.8-1.5,3.8
		c-1,1-2.3,1.5-3.8,1.5c-1.4,0-2.6-0.4-3.6-1.3c-0.9-0.9-1.5-2.1-1.7-3.6l2.5-0.6c0.1,1,0.3,1.6,0.6,2c0.5,0.7,1.3,1.1,2.3,1.1
		c0.8,0,1.4-0.3,1.9-0.8c0.5-0.5,0.8-1.2,0.8-2c0-0.3,0-0.6-0.1-0.9c-0.1-0.3-0.2-0.5-0.4-0.7c-0.2-0.2-0.4-0.4-0.7-0.6
		s-0.7-0.4-1.1-0.6l-1.6-0.7c-2.3-1-3.4-2.4-3.4-4.2c0-1.2,0.5-2.3,1.4-3.1c1-0.8,2.1-1.3,3.6-1.3C206.2,40.6,207.7,41.5,208.8,43.4
		z"/>
	<path class="st0" d="M221.3,52.8h-7.5c0.1,0.9,0.3,1.5,0.8,2.1c0.5,0.5,1.1,0.8,1.9,0.8c0.6,0,1.1-0.1,1.5-0.4
		c0.4-0.3,0.8-0.8,1.3-1.6l2,1.1c-0.3,0.5-0.6,1-1,1.4s-0.7,0.7-1.1,0.9s-0.8,0.4-1.3,0.5s-1,0.2-1.5,0.2c-1.6,0-2.8-0.5-3.8-1.5
		c-0.9-1-1.4-2.3-1.4-4c0-1.7,0.5-3,1.4-4c0.9-1,2.1-1.5,3.7-1.5c1.5,0,2.8,0.5,3.7,1.5c0.9,1,1.3,2.3,1.3,4L221.3,52.8z
		 M218.8,50.8c-0.3-1.3-1.1-1.9-2.4-1.9c-0.3,0-0.6,0-0.8,0.1s-0.5,0.2-0.7,0.4c-0.2,0.2-0.4,0.4-0.5,0.6s-0.3,0.5-0.3,0.8H218.8z"
		/>
	<path class="st0" d="M223.9,47h2.4v0.9c0.4-0.5,0.8-0.8,1.2-1c0.4-0.2,0.8-0.3,1.2-0.3c0.6,0,1.3,0.2,2,0.6l-1.1,2.2
		c-0.5-0.3-0.9-0.5-1.3-0.5c-1.3,0-2,1-2,3v5.4h-2.4V47z"/>
	<path class="st0" d="M234.4,47l2.7,5.9l2.7-5.9h2.7l-5.4,11.2L231.7,47H234.4z"/>
	<path class="st0" d="M243.8,42.7c0-0.4,0.2-0.8,0.5-1.1c0.3-0.3,0.7-0.5,1.1-0.5c0.4,0,0.8,0.2,1.1,0.5c0.3,0.3,0.5,0.7,0.5,1.1
		c0,0.4-0.2,0.8-0.5,1.1c-0.3,0.3-0.7,0.5-1.1,0.5s-0.8-0.2-1.1-0.5C243.9,43.5,243.8,43.1,243.8,42.7z M246.6,47v10.5h-2.4V47
		H246.6z"/>
	<path class="st0" d="M257.8,47.5v3.2c-0.6-0.7-1-1.1-1.5-1.4c-0.4-0.3-0.9-0.4-1.5-0.4c-0.9,0-1.7,0.3-2.3,1
		c-0.6,0.6-0.9,1.4-0.9,2.4c0,1,0.3,1.8,0.9,2.4c0.6,0.6,1.3,0.9,2.2,0.9c0.6,0,1.1-0.1,1.5-0.4c0.4-0.2,0.9-0.7,1.5-1.4V57
		c-1,0.5-2,0.8-2.9,0.8c-1.6,0-3-0.5-4.1-1.6c-1.1-1.1-1.6-2.4-1.6-3.9c0-1.6,0.6-2.9,1.7-4s2.5-1.6,4.1-1.6
		C255.9,46.7,256.9,47,257.8,47.5z"/>
	<path class="st0" d="M269.6,52.8h-7.5c0.1,0.9,0.3,1.5,0.8,2.1c0.5,0.5,1.1,0.8,1.9,0.8c0.6,0,1.1-0.1,1.5-0.4
		c0.4-0.3,0.8-0.8,1.3-1.6l2,1.1c-0.3,0.5-0.6,1-1,1.4s-0.7,0.7-1.1,0.9s-0.8,0.4-1.3,0.5s-1,0.2-1.5,0.2c-1.6,0-2.8-0.5-3.8-1.5
		c-0.9-1-1.4-2.3-1.4-4c0-1.7,0.5-3,1.4-4c0.9-1,2.1-1.5,3.7-1.5c1.5,0,2.8,0.5,3.7,1.5c0.9,1,1.3,2.3,1.3,4L269.6,52.8z
		 M267.2,50.8c-0.3-1.3-1.1-1.9-2.4-1.9c-0.3,0-0.6,0-0.8,0.1s-0.5,0.2-0.7,0.4c-0.2,0.2-0.4,0.4-0.5,0.6s-0.3,0.5-0.3,0.8H267.2z"
		/>
	<path class="st0" d="M278.4,48.8l-2,1.1c-0.3-0.6-0.7-1-1.2-1c-0.2,0-0.4,0.1-0.6,0.2s-0.2,0.3-0.2,0.6c0,0.4,0.5,0.8,1.4,1.2
		c1.3,0.6,2.1,1.1,2.6,1.5c0.4,0.5,0.7,1.1,0.7,1.9c0,1-0.4,1.9-1.1,2.5c-0.7,0.6-1.6,1-2.6,1c-1.8,0-3-0.9-3.7-2.6l2.1-1
		c0.3,0.5,0.5,0.8,0.7,1c0.3,0.3,0.6,0.4,1.1,0.4c0.8,0,1.2-0.4,1.2-1.1c0-0.4-0.3-0.8-0.9-1.2c-0.2-0.1-0.5-0.2-0.7-0.4
		c-0.2-0.1-0.5-0.2-0.7-0.4c-0.7-0.3-1.2-0.7-1.5-1c-0.4-0.4-0.5-1-0.5-1.7c0-0.9,0.3-1.7,0.9-2.3c0.6-0.6,1.4-0.9,2.3-0.9
		C276.7,46.7,277.7,47.4,278.4,48.8z"/>
</g>
<line class="st1" x1="183" y1="0" x2="183" y2="65"/>
<rect x="184" y="11" class="st0" width="2" height="51"/>
</svg>
